<svg id="visual" viewBox="0 0 900 600" width="900" height="600" xmlns="http://www.w3.org/2000/svg" xmlns:xlink="http://www.w3.org/1999/xlink" version="1.1"><rect x="0" y="0" width="900" height="600" fill="#6366f1"></rect><path d="M0 382L21.5 389.7C43 397.3 86 412.7 128.8 420.7C171.7 428.7 214.3 429.3 257.2 432C300 434.7 343 439.3 385.8 436.8C428.7 434.3 471.3 424.7 514.2 411.7C557 398.7 600 382.3 642.8 380C685.7 377.7 728.3 389.3 771.2 400.3C814 411.3 857 421.7 878.5 426.8L900 432L900 601L878.5 601C857 601 814 601 771.2 601C728.3 601 685.7 601 642.8 601C600 601 557 601 514.2 601C471.3 601 428.7 601 385.8 601C343 601 300 601 257.2 601C214.3 601 171.7 601 128.8 601C86 601 43 601 21.5 601L0 601Z" fill="#6366f1"></path><path d="M0 445L21.5 448.3C43 451.7 86 458.3 128.8 460.7C171.7 463 214.3 461 257.2 459.5C300 458 343 457 385.8 446.8C428.7 436.7 471.3 417.3 514.2 410.7C557 404 600 410 642.8 421C685.7 432 728.3 448 771.2 447C814 446 857 428 878.5 419L900 410L900 601L878.5 601C857 601 814 601 771.2 601C728.3 601 685.7 601 642.8 601C600 601 557 601 514.2 601C471.3 601 428.7 601 385.8 601C343 601 300 601 257.2 601C214.3 601 171.7 601 128.8 601C86 601 43 601 21.5 601L0 601Z" fill="#6156e3"></path><path d="M0 439L21.5 442.7C43 446.3 86 453.7 128.8 462.7C171.7 471.7 214.3 482.3 257.2 483C300 483.7 343 474.3 385.8 470.2C428.7 466 471.3 467 514.2 470.8C557 474.7 600 481.3 642.8 481C685.7 480.7 728.3 473.3 771.2 475.8C814 478.3 857 490.7 878.5 496.8L900 503L900 601L878.5 601C857 601 814 601 771.2 601C728.3 601 685.7 601 642.8 601C600 601 557 601 514.2 601C471.3 601 428.7 601 385.8 601C343 601 300 601 257.2 601C214.3 601 171.7 601 128.8 601C86 601 43 601 21.5 601L0 601Z" fill="#5f46d4"></path><path d="M0 502L21.5 500.2C43 498.3 86 494.7 128.8 495.2C171.7 495.7 214.3 500.3 257.2 507.3C300 514.3 343 523.7 385.8 522C428.7 520.3 471.3 507.7 514.2 505.7C557 503.7 600 512.3 642.8 512.7C685.7 513 728.3 505 771.2 505.8C814 506.7 857 516.3 878.5 521.2L900 526L900 601L878.5 601C857 601 814 601 771.2 601C728.3 601 685.7 601 642.8 601C600 601 557 601 514.2 601C471.3 601 428.7 601 385.8 601C343 601 300 601 257.2 601C214.3 601 171.7 601 128.8 601C86 601 43 601 21.5 601L0 601Z" fill="#5d35c5"></path><path d="M0 554L21.5 552.2C43 550.3 86 546.7 128.8 547C171.7 547.3 214.3 551.7 257.2 551C300 550.3 343 544.7 385.8 539.5C428.7 534.3 471.3 529.7 514.2 534C557 538.3 600 551.7 642.8 557.7C685.7 563.7 728.3 562.3 771.2 560.8C814 559.3 857 557.7 878.5 556.8L900 556L900 601L878.5 601C857 601 814 601 771.2 601C728.3 601 685.7 601 642.8 601C600 601 557 601 514.2 601C471.3 601 428.7 601 385.8 601C343 601 300 601 257.2 601C214.3 601 171.7 601 128.8 601C86 601 43 601 21.5 601L0 601Z" fill="#5b21b6"></path></svg>